<svg id="Group_3894" data-name="Group 3894" xmlns="http://www.w3.org/2000/svg" width="45.275" height="45" viewBox="0 0 45.275 45">
  <path id="Path_439" data-name="Path 439" d="M1612.275-219.362A22.637,22.637,0,0,0,1589.637-242,22.638,22.638,0,0,0,1567-219.362,22.643,22.643,0,0,0,1586.1-197v-15.819h-5.748v-6.544h5.748v-4.987c0-5.674,3.38-8.807,8.551-8.807a34.81,34.81,0,0,1,5.067.442v5.571h-2.854c-2.812,0-3.689,1.745-3.689,3.535v4.246h6.278l-1,6.544h-5.275V-197A22.643,22.643,0,0,0,1612.275-219.362Z" transform="translate(-1567 242)" fill="#fff"/>
</svg>
