<svg id="Group_3893" data-name="Group 3893" xmlns="http://www.w3.org/2000/svg" width="45" height="45" viewBox="0 0 45 45">
  <path id="Path_437" data-name="Path 437" d="M-473.125,318.47c6.008,0,6.719.023,9.092.131a12.451,12.451,0,0,1,4.178.775,6.973,6.973,0,0,1,2.587,1.683,6.971,6.971,0,0,1,1.683,2.587,12.45,12.45,0,0,1,.775,4.178c.108,2.373.131,3.084.131,9.092s-.023,6.719-.131,9.092a12.449,12.449,0,0,1-.775,4.178,6.97,6.97,0,0,1-1.683,2.587,6.973,6.973,0,0,1-2.587,1.683,12.448,12.448,0,0,1-4.178.775c-2.372.108-3.084.131-9.092.131s-6.72-.023-9.092-.131a12.446,12.446,0,0,1-4.178-.775,6.973,6.973,0,0,1-2.587-1.683,6.969,6.969,0,0,1-1.683-2.587,12.452,12.452,0,0,1-.775-4.178c-.108-2.373-.131-3.084-.131-9.092s.023-6.719.131-9.092a12.452,12.452,0,0,1,.775-4.178,6.968,6.968,0,0,1,1.683-2.587,6.972,6.972,0,0,1,2.587-1.683,12.449,12.449,0,0,1,4.178-.775c2.373-.108,3.084-.131,9.092-.131m0-4.054c-6.111,0-6.877.026-9.277.135a16.512,16.512,0,0,0-5.462,1.046,11.031,11.031,0,0,0-3.985,2.6,11.031,11.031,0,0,0-2.6,3.985,16.515,16.515,0,0,0-1.046,5.462c-.109,2.4-.135,3.166-.135,9.277s.026,6.877.135,9.277a16.515,16.515,0,0,0,1.046,5.462,11.031,11.031,0,0,0,2.6,3.985,11.03,11.03,0,0,0,3.985,2.6,16.513,16.513,0,0,0,5.462,1.046c2.4.109,3.166.135,9.277.135s6.877-.026,9.277-.135a16.513,16.513,0,0,0,5.462-1.046,11.028,11.028,0,0,0,3.985-2.6,11.032,11.032,0,0,0,2.6-3.985,16.519,16.519,0,0,0,1.046-5.462c.109-2.4.135-3.166.135-9.277s-.026-6.877-.135-9.277a16.519,16.519,0,0,0-1.046-5.462,11.032,11.032,0,0,0-2.6-3.985,11.028,11.028,0,0,0-3.985-2.6,16.512,16.512,0,0,0-5.462-1.046c-2.4-.11-3.166-.135-9.277-.135Z" transform="translate(495.625 -314.416)" fill="#fff"/>
  <path id="Path_438" data-name="Path 438" d="M-362.1,436.972a10.966,10.966,0,0,0-10.966,10.966A10.966,10.966,0,0,0-362.1,458.9a10.966,10.966,0,0,0,10.966-10.966A10.966,10.966,0,0,0-362.1,436.972Zm0,18.085a7.118,7.118,0,0,1-7.118-7.118,7.118,7.118,0,0,1,7.118-7.118,7.118,7.118,0,0,1,7.118,7.118A7.118,7.118,0,0,1-362.1,455.057Z" transform="translate(384.603 -425.438)" fill="#fff"/>
  <ellipse id="Ellipse_279" data-name="Ellipse 279" cx="2.845" cy="2.845" rx="2.845" ry="2.845" transform="translate(31.578 7.732)" fill="#fff"/>
</svg>
