<svg id="Group_3898" data-name="Group 3898" xmlns="http://www.w3.org/2000/svg" xmlns:xlink="http://www.w3.org/1999/xlink" width="51.477" height="51.477" viewBox="0 0 51.477 51.477">
  <defs>
    <clipPath id="clip-path">
      <rect id="Rectangle_667" data-name="Rectangle 667" width="51.477" height="51.477" fill="#fff"/>
    </clipPath>
  </defs>
  <g id="Group_3596" data-name="Group 3596" transform="translate(0 0)" clip-path="url(#clip-path)">
    <path id="Path_11695" data-name="Path 11695" d="M25.667,0A25.666,25.666,0,1,0,51.333,25.666,25.667,25.667,0,0,0,25.667,0M34.02,36.362H17.314a2.516,2.516,0,0,1-2.477-2.955l2.9-16.359a2.516,2.516,0,0,1,2.477-2.077H31.634a2.516,2.516,0,0,1,2.49,2.153l2.386,16.359a2.516,2.516,0,0,1-2.49,2.879" transform="translate(0 0.144)" fill="#fff"/>
  </g>
</svg>
